<svg xmlns="http://www.w3.org/2000/svg" width="32" height="32" viewBox="0 0 24 24"><!-- Icon from Material Symbols Light by Google - https://github.com/google/material-design-icons/blob/master/LICENSE --><path fill="currentColor" d="M5.688 19.116q-1.092 0-1.851-.763q-.76-.763-.76-1.853H1.692V6.616q0-.691.463-1.153T3.308 5h13.23v3.616h2.308l3.462 4.653V16.5h-1.616q0 1.09-.764 1.853t-1.856.762t-1.85-.762t-.76-1.853H8.307q0 1.096-.764 1.856t-1.856.76m.004-1q.675 0 1.145-.47t.47-1.146t-.47-1.145t-1.145-.47t-1.145.47t-.47 1.145t.47 1.145t1.145.47m12.385 0q.675 0 1.145-.47t.47-1.145t-.47-1.145t-1.145-.47t-1.145.47t-.47 1.145t.47 1.145t1.145.47M16.538 13.5h4.712l-2.942-3.884h-1.77z"/></svg>